HIERARCHY
ROOT mixamorig:Hips
{
	OFFSET -0.000008 104.274872 1.554316
	CHANNELS 6 Xposition Yposition Zposition Xrotation Yrotation Zrotation
	JOINT mixamorig:Spine
	{
		OFFSET -0.000005 10.181595 0.131519
		CHANNELS 6 Xposition Yposition Zposition Xrotation Yrotation Zrotation
		JOINT mixamorig:Spine1
		{
			OFFSET -0.000000 9.893959 -1.470707
			CHANNELS 6 Xposition Yposition Zposition Xrotation Yrotation Zrotation
			JOINT mixamorig:Spine2
			{
				OFFSET -0.000000 9.220757 -1.370641
				CHANNELS 6 Xposition Yposition Zposition Xrotation Yrotation Zrotation
				JOINT mixamorig:Neck
				{
					OFFSET 0.000001 16.740417 -2.049036
					CHANNELS 6 Xposition Yposition Zposition Xrotation Yrotation Zrotation
					JOINT mixamorig:Head
					{
						OFFSET 0.000000 9.617874 1.685006
						CHANNELS 6 Xposition Yposition Zposition Xrotation Yrotation Zrotation
						JOINT mixamorig:HeadTop_End
						{
							OFFSET 0.000002 22.037354 7.501101
							CHANNELS 6 Xposition Yposition Zposition Xrotation Yrotation Zrotation
							End Site
							{
								OFFSET 0.000168 2310.654297 -282.823242
							}
						}
					}
				}
				JOINT mixamorig:RightShoulder
				{
					OFFSET -4.569970 11.014908 -2.160885
					CHANNELS 6 Xposition Yposition Zposition Xrotation Yrotation Zrotation
					JOINT mixamorig:RightArm
					{
						OFFSET -10.592851 -0.524811 -2.232101
						CHANNELS 6 Xposition Yposition Zposition Xrotation Yrotation Zrotation
						JOINT mixamorig:RightForeArm
						{
							OFFSET -27.841511 0.000031 -0.000004
							CHANNELS 6 Xposition Yposition Zposition Xrotation Yrotation Zrotation
							JOINT mixamorig:RightHand
							{
								OFFSET -28.328831 -0.000015 0.000015
								CHANNELS 6 Xposition Yposition Zposition Xrotation Yrotation Zrotation
								JOINT mixamorig:RightHandThumb1
								{
									OFFSET -2.464806 -1.573990 2.681852
									CHANNELS 6 Xposition Yposition Zposition Xrotation Yrotation Zrotation
									JOINT mixamorig:RightHandThumb2
									{
										OFFSET -3.215179 -1.872803 1.924282
										CHANNELS 6 Xposition Yposition Zposition Xrotation Yrotation Zrotation
										JOINT mixamorig:RightHandThumb3
										{
											OFFSET -2.654831 -1.527969 1.512609
											CHANNELS 6 Xposition Yposition Zposition Xrotation Yrotation Zrotation
											JOINT mixamorig:RightHandThumb4
											{
												OFFSET -2.018814 -1.152008 1.108052
												CHANNELS 6 Xposition Yposition Zposition Xrotation Yrotation Zrotation
												End Site
												{
													OFFSET -188.809540 -114.533607 132.431396
												}
											}
										}
									}
								}
								JOINT mixamorig:RightHandIndex1
								{
									OFFSET -9.108284 -0.517868 2.259835
									CHANNELS 6 Xposition Yposition Zposition Xrotation Yrotation Zrotation
									JOINT mixamorig:RightHandIndex2
									{
										OFFSET -3.699989 0.000000 0.001215
										CHANNELS 6 Xposition Yposition Zposition Xrotation Yrotation Zrotation
										JOINT mixamorig:RightHandIndex3
										{
											OFFSET -2.850006 0.000031 -0.000522
											CHANNELS 6 Xposition Yposition Zposition Xrotation Yrotation Zrotation
											JOINT mixamorig:RightHandIndex4
											{
												OFFSET -2.772186 -0.000015 -0.000020
												CHANNELS 6 Xposition Yposition Zposition Xrotation Yrotation Zrotation
												End Site
												{
													OFFSET -277.218445 0.000000 -0.050231
												}
											}
										}
									}
								}
								JOINT mixamorig:RightHandMiddle1
								{
									OFFSET -9.532516 -0.000031 -0.000023
									CHANNELS 6 Xposition Yposition Zposition Xrotation Yrotation Zrotation
									JOINT mixamorig:RightHandMiddle2
									{
										OFFSET -3.700005 -0.000015 0.003713
										CHANNELS 6 Xposition Yposition Zposition Xrotation Yrotation Zrotation
										JOINT mixamorig:RightHandMiddle3
										{
											OFFSET -2.949974 0.000015 -0.002054
											CHANNELS 6 Xposition Yposition Zposition Xrotation Yrotation Zrotation
											JOINT mixamorig:RightHandMiddle4
											{
												OFFSET -2.946640 0.000000 -0.000156
												CHANNELS 6 Xposition Yposition Zposition Xrotation Yrotation Zrotation
												End Site
												{
													OFFSET -294.664337 0.000000 -0.113670
												}
											}
										}
									}
								}
								JOINT mixamorig:RightHandRing1
								{
									OFFSET -9.103600 -0.043076 -1.865134
									CHANNELS 6 Xposition Yposition Zposition Xrotation Yrotation Zrotation
									JOINT mixamorig:RightHandRing2
									{
										OFFSET -3.379288 0.000000 -0.001055
										CHANNELS 6 Xposition Yposition Zposition Xrotation Yrotation Zrotation
										JOINT mixamorig:RightHandRing3
										{
											OFFSET -2.889687 -0.000015 0.000379
											CHANNELS 6 Xposition Yposition Zposition Xrotation Yrotation Zrotation
											JOINT mixamorig:RightHandRing4
											{
												OFFSET -2.638809 -0.000015 0.000941
												CHANNELS 6 Xposition Yposition Zposition Xrotation Yrotation Zrotation
												End Site
												{
													OFFSET -263.880371 0.000000 0.516020
												}
											}
										}
									}
								}
								JOINT mixamorig:RightHandPinky1
								{
									OFFSET -8.076683 -0.486710 -3.806280
									CHANNELS 6 Xposition Yposition Zposition Xrotation Yrotation Zrotation
									JOINT mixamorig:RightHandPinky2
									{
										OFFSET -3.600014 -0.000015 -0.003747
										CHANNELS 6 Xposition Yposition Zposition Xrotation Yrotation Zrotation
										JOINT mixamorig:RightHandPinky3
										{
											OFFSET -2.099983 0.000000 -0.005739
											CHANNELS 6 Xposition Yposition Zposition Xrotation Yrotation Zrotation
											JOINT mixamorig:RightHandPinky4
											{
												OFFSET -2.115768 -0.000031 -0.003680
												CHANNELS 6 Xposition Yposition Zposition Xrotation Yrotation Zrotation
												End Site
												{
													OFFSET -211.577087 0.000000 -0.350686
												}
											}
										}
									}
								}
							}
						}
					}
				}
				JOINT mixamorig:LeftShoulder
				{
					OFFSET 4.570447 11.014725 -2.160855
					CHANNELS 6 Xposition Yposition Zposition Xrotation Yrotation Zrotation
					JOINT mixamorig:LeftArm
					{
						OFFSET 10.592371 -0.524597 -2.232119
						CHANNELS 6 Xposition Yposition Zposition Xrotation Yrotation Zrotation
						JOINT mixamorig:LeftForeArm
						{
							OFFSET 27.841532 -0.000031 0.000026
							CHANNELS 6 Xposition Yposition Zposition Xrotation Yrotation Zrotation
							JOINT mixamorig:LeftHand
							{
								OFFSET 28.328846 -0.000061 0.000022
								CHANNELS 6 Xposition Yposition Zposition Xrotation Yrotation Zrotation
								JOINT mixamorig:LeftHandThumb1
								{
									OFFSET 2.466141 -1.576172 2.681732
									CHANNELS 6 Xposition Yposition Zposition Xrotation Yrotation Zrotation
									JOINT mixamorig:LeftHandThumb2
									{
										OFFSET 3.217812 -1.872070 1.916482
										CHANNELS 6 Xposition Yposition Zposition Xrotation Yrotation Zrotation
										JOINT mixamorig:LeftHandThumb3
										{
											OFFSET 2.656029 -1.528778 1.514513
											CHANNELS 6 Xposition Yposition Zposition Xrotation Yrotation Zrotation
											JOINT mixamorig:LeftHandThumb4
											{
												OFFSET 2.020889 -1.154053 1.115139
												CHANNELS 6 Xposition Yposition Zposition Xrotation Yrotation Zrotation
												End Site
												{
													OFFSET 190.885437 -115.081749 130.048782
												}
											}
										}
									}
								}
								JOINT mixamorig:LeftHandIndex1
								{
									OFFSET 9.109314 -0.518021 2.259871
									CHANNELS 6 Xposition Yposition Zposition Xrotation Yrotation Zrotation
									JOINT mixamorig:LeftHandIndex2
									{
										OFFSET 3.699989 0.000000 -0.000322
										CHANNELS 6 Xposition Yposition Zposition Xrotation Yrotation Zrotation
										JOINT mixamorig:LeftHandIndex3
										{
											OFFSET 2.850006 0.000000 0.000352
											CHANNELS 6 Xposition Yposition Zposition Xrotation Yrotation Zrotation
											JOINT mixamorig:LeftHandIndex4
											{
												OFFSET 2.774864 -0.000031 -0.000027
												CHANNELS 6 Xposition Yposition Zposition Xrotation Yrotation Zrotation
												End Site
												{
													OFFSET 277.486267 0.000000 -0.009857
												}
											}
										}
									}
								}
								JOINT mixamorig:LeftHandMiddle1
								{
									OFFSET 9.533394 0.000061 0.000044
									CHANNELS 6 Xposition Yposition Zposition Xrotation Yrotation Zrotation
									JOINT mixamorig:LeftHandMiddle2
									{
										OFFSET 3.699989 -0.000015 -0.000231
										CHANNELS 6 Xposition Yposition Zposition Xrotation Yrotation Zrotation
										JOINT mixamorig:LeftHandMiddle3
										{
											OFFSET 2.949997 -0.000015 -0.000059
											CHANNELS 6 Xposition Yposition Zposition Xrotation Yrotation Zrotation
											JOINT mixamorig:LeftHandMiddle4
											{
												OFFSET 2.952896 0.000031 0.000063
												CHANNELS 6 Xposition Yposition Zposition Xrotation Yrotation Zrotation
												End Site
												{
													OFFSET 295.289337 0.000000 0.022810
												}
											}
										}
									}
								}
								JOINT mixamorig:LeftHandRing1
								{
									OFFSET 9.104523 -0.042999 -1.865074
									CHANNELS 6 Xposition Yposition Zposition Xrotation Yrotation Zrotation
									JOINT mixamorig:LeftHandRing2
									{
										OFFSET 3.150009 -0.000031 0.000043
										CHANNELS 6 Xposition Yposition Zposition Xrotation Yrotation Zrotation
										JOINT mixamorig:LeftHandRing3
										{
											OFFSET 2.949982 -0.000015 0.000040
											CHANNELS 6 Xposition Yposition Zposition Xrotation Yrotation Zrotation
											JOINT mixamorig:LeftHandRing4
											{
												OFFSET 2.644348 0.000000 0.000057
												CHANNELS 6 Xposition Yposition Zposition Xrotation Yrotation Zrotation
												End Site
												{
													OFFSET 264.434631 0.000000 0.012105
												}
											}
										}
									}
								}
								JOINT mixamorig:LeftHandPinky1
								{
									OFFSET 8.077789 -0.486847 -3.806259
									CHANNELS 6 Xposition Yposition Zposition Xrotation Yrotation Zrotation
									JOINT mixamorig:LeftHandPinky2
									{
										OFFSET 3.599953 0.000031 0.014727
										CHANNELS 6 Xposition Yposition Zposition Xrotation Yrotation Zrotation
										JOINT mixamorig:LeftHandPinky3
										{
											OFFSET 2.100021 0.000015 0.007705
											CHANNELS 6 Xposition Yposition Zposition Xrotation Yrotation Zrotation
											JOINT mixamorig:LeftHandPinky4
											{
												OFFSET 2.125504 0.000031 0.007517
												CHANNELS 6 Xposition Yposition Zposition Xrotation Yrotation Zrotation
												End Site
												{
													OFFSET 212.550781 0.000000 0.625752
												}
											}
										}
									}
								}
							}
						}
					}
				}
			}
		}
	}
	JOINT mixamorig:RightUpLeg
	{
		OFFSET -8.207787 -6.751648 -1.599560
		CHANNELS 6 Xposition Yposition Zposition Xrotation Yrotation Zrotation
		JOINT mixamorig:RightLeg
		{
			OFFSET -0.000002 -44.370117 0.345942
			CHANNELS 6 Xposition Yposition Zposition Xrotation Yrotation Zrotation
			JOINT mixamorig:RightFoot
			{
				OFFSET 0.000003 -44.423679 -3.043532
				CHANNELS 6 Xposition Yposition Zposition Xrotation Yrotation Zrotation
				JOINT mixamorig:RightToeBase
				{
					OFFSET -0.000002 -8.728671 10.710558
					CHANNELS 6 Xposition Yposition Zposition Xrotation Yrotation Zrotation
					JOINT mixamorig:RightToe_End
					{
						OFFSET -0.000001 -0.000679 9.278119
						CHANNELS 6 Xposition Yposition Zposition Xrotation Yrotation Zrotation
						End Site
						{
							OFFSET 0.000000 -0.067690 927.812134
						}
					}
				}
			}
		}
	}
	JOINT mixamorig:LeftUpLeg
	{
		OFFSET 8.207793 -6.751686 -1.599556
		CHANNELS 6 Xposition Yposition Zposition Xrotation Yrotation Zrotation
		JOINT mixamorig:LeftLeg
		{
			OFFSET -0.000004 -44.370014 0.346954
			CHANNELS 6 Xposition Yposition Zposition Xrotation Yrotation Zrotation
			JOINT mixamorig:LeftFoot
			{
				OFFSET -0.000001 -44.423672 -3.044401
				CHANNELS 6 Xposition Yposition Zposition Xrotation Yrotation Zrotation
				JOINT mixamorig:LeftToeBase
				{
					OFFSET -0.000002 -8.728669 10.710558
					CHANNELS 6 Xposition Yposition Zposition Xrotation Yrotation Zrotation
					JOINT mixamorig:LeftToe_End
					{
						OFFSET -0.000003 -0.000679 9.278133
						CHANNELS 6 Xposition Yposition Zposition Xrotation Yrotation Zrotation
						End Site
						{
							OFFSET 0.000000 -0.068021 927.813477
						}
					}
				}
			}
		}
	}
}
MOTION
Frames: 3
Frame Time: 0.033333
0.000006 104.270477 1.554256 0.000010 0.000003 -0.000113 -0.000005 10.181587 0.131522 0.000001 -0.000003 0.000084 -0.000000 9.893967 -1.470711 0.000001 0.000000 -0.000000 -0.000000 9.220802 -1.370642 0.000000 -0.000000 -0.000000 0.000001 16.740433 -2.049030 0.000000 -0.000000 -0.000000 0.000000 9.617859 1.685014 0.000000 0.000000 0.000000 0.000002 22.037384 7.501101 0.000000 -0.000000 0.000000 -4.569968 11.014880 -2.160881 0.000008 0.000001 -0.000038 -10.592781 -0.524836 -2.231747 75.943220 65.435459 -53.258895 -27.841488 0.000005 0.000584 47.814029 104.851211 -59.896804 -28.328835 0.000019 0.000016 -0.000322 -0.000044 0.000006 -2.464553 -1.574198 2.682219 55.332237 -136.942670 117.607552 -3.215017 -1.873028 1.924424 285.600098 -29.455775 333.560812 -2.654732 -1.528236 1.512775 294.699495 -18.237664 339.366610 -2.018842 -1.152014 1.108069 -0.000003 0.000001 0.000005 -9.108335 -0.518043 2.260169 280.528300 11.278397 9.409313 -3.700054 -0.000145 0.001566 281.083731 15.870785 13.079852 -2.850070 -0.000152 -0.000203 282.930532 12.796522 10.206522 -2.772170 -0.000014 0.000000 -0.000000 -0.000000 0.000003 -9.532535 -0.000225 0.000290 282.654975 8.039347 6.516191 -3.700046 -0.000164 0.004052 280.074366 11.668145 9.735976 -2.950035 -0.000182 -0.001736 280.326263 9.426278 7.865255 -2.946622 0.000012 -0.000153 -0.000000 -0.000000 0.000002 -9.103638 -0.043236 -1.864840 285.362408 8.135400 6.183080 -3.379301 -0.000191 -0.000735 280.798557 8.988127 7.450954 -2.889729 -0.000175 0.000705 278.608990 6.812054 5.890867 -2.638807 -0.000013 0.000941 0.000000 0.000000 -0.000001 -8.076696 -0.486865 -3.806014 288.799687 8.881882 6.293138 -3.600012 -0.000250 -0.003427 283.054569 3.775110 2.768174 -2.099986 -0.000222 -0.005442 279.026888 0.953138 0.644656 -2.115768 -0.000055 -0.003679 -0.000000 0.000000 -0.000003 4.570446 11.014691 -2.160851 -0.000018 0.000010 -0.000021 10.592525 -0.524534 -2.232402 69.825529 -63.444931 46.674258 27.841766 -0.000062 -0.000117 227.107342 -77.260368 237.223781 28.328833 -0.000013 0.000021 0.000020 -0.000090 -0.000000 2.466201 -1.576109 2.681893 41.505810 140.296443 -108.268081 3.217836 -1.871985 1.916542 267.759808 38.163617 38.913189 2.656051 -1.528741 1.514611 103.165759 154.847273 -152.867748 2.020890 -1.154087 1.115149 -0.000001 0.000002 0.000009 9.109282 -0.517861 2.260115 90.296160 -166.623325 166.699031 3.699931 0.000163 -0.000065 88.794925 -161.206371 160.805247 2.849957 0.000189 0.000593 89.719111 -164.355115 164.279942 2.774879 -0.000008 -0.000019 0.000005 0.000003 -0.000003 9.533384 0.000206 0.000270 90.365240 -169.579745 169.651299 3.699959 0.000153 0.000036 88.088144 -165.223137 164.729095 2.949965 0.000153 0.000175 267.455646 -12.492209 -13.056816 2.952869 -0.000026 0.000067 0.000002 0.000000 -0.000005 9.104504 -0.042867 -1.864830 91.638462 -169.260011 169.559897 3.149970 0.000221 0.000286 266.973462 -10.839033 -11.424750 2.949968 0.000196 0.000285 266.512752 -8.214190 -8.729376 2.644324 0.000031 0.000058 0.000001 -0.000000 0.000001 8.077764 -0.486731 -3.806008 -82.810709 -11.708393 -10.653330 3.599931 0.000175 0.014982 273.300594 -6.074411 -6.087766 2.099980 0.000188 0.007940 271.221758 -3.253577 -3.557045 2.125507 0.000001 0.007507 -0.000001 -0.000000 0.000002 -8.207786 -6.751667 -1.599560 -0.077001 -0.000003 0.000080 -0.000002 -44.370110 0.345938 0.153719 -0.000000 -0.000000 0.000000 -44.423679 -3.043532 -0.076700 0.000000 -0.000002 -0.000006 -8.728667 10.710559 -0.000009 -0.000000 -0.000000 -0.000001 -0.000679 9.278123 0.000000 -0.000000 -0.000000 8.207792 -6.751710 -1.599556 -0.074518 -0.000003 0.000081 -0.000002 -44.370014 0.346960 0.148822 0.000002 0.000000 -0.000001 -44.423664 -3.044403 -0.074314 0.000000 -0.000002 -0.000004 -8.728671 10.710558 0.000007 -0.000000 -0.000000 0.000000 -0.000680 9.278137 -0.000000 0.000000 -0.000001 
0.000006 104.270477 1.554256 0.000010 0.000003 -0.000113 -0.000005 10.181587 0.131522 0.000001 -0.000003 0.000084 -0.000000 9.893967 -1.470711 0.000001 0.000000 -0.000000 -0.000000 9.220802 -1.370642 0.000000 -0.000000 -0.000000 0.000001 16.740433 -2.049030 0.000000 -0.000000 -0.000000 0.000000 9.617859 1.685014 0.000000 0.000000 0.000000 0.000002 22.037384 7.501101 0.000000 -0.000000 0.000000 -4.569968 11.014880 -2.160881 0.000008 0.000001 -0.000038 -10.592777 -0.524843 -2.231748 78.743455 65.596331 -55.739135 -27.841501 0.000021 0.000575 47.504444 102.694421 -57.639966 -28.328821 0.000020 0.000028 -0.000321 -0.000045 0.000007 -2.464581 -1.574211 2.682246 55.819895 -141.429312 120.550817 -3.215027 -1.873044 1.924461 281.549632 -30.114106 331.318926 -2.654743 -1.528239 1.512773 293.742203 -17.779010 339.045181 -2.018831 -1.151983 1.108061 -0.000003 -0.000003 0.000004 -9.108343 -0.518040 2.260168 283.011566 12.284384 9.805980 -3.700061 -0.000145 0.001513 285.769760 16.593378 12.584597 -2.850065 -0.000151 -0.000235 288.035607 13.384307 9.738429 -2.772164 -0.000017 -0.000018 -0.000001 0.000001 0.000003 -9.532542 -0.000222 0.000289 284.461779 9.079970 7.114766 -3.700043 -0.000164 0.004023 284.875033 12.870463 9.869256 -2.950038 -0.000174 -0.001752 286.830980 10.858489 8.067010 -2.946625 0.000001 -0.000153 -0.000002 -0.000001 0.000000 -9.103651 -0.043239 -1.864835 285.975157 9.212332 6.929417 -3.379317 -0.000190 -0.000720 283.083310 9.969943 7.935662 -2.889738 -0.000171 0.000700 282.430235 7.806968 6.305031 -2.638807 0.000000 0.000933 0.000001 -0.000000 -0.000001 -8.076706 -0.486863 -3.806002 288.927712 10.632928 7.536553 -3.600018 -0.000261 -0.003435 284.903528 5.873728 4.301838 -2.099994 -0.000217 -0.005462 283.287451 2.330019 1.691311 -2.115776 -0.000011 -0.003678 0.000002 0.000000 -0.000003 4.570446 11.014691 -2.160851 -0.000018 0.000010 -0.000021 10.592530 -0.524534 -2.232397 70.620113 -65.102071 48.658070 27.841766 -0.000053 -0.000120 225.669095 -78.642860 234.411491 28.328833 -0.000012 0.000019 0.000023 -0.000088 -0.000001 2.466201 -1.576092 2.681879 37.418771 143.022741 -106.623706 3.217846 -1.871990 1.916528 259.602814 40.448080 45.010974 2.656044 -1.528746 1.514615 95.312667 150.678959 -147.712594 2.020890 -1.154053 1.115147 0.000005 0.000005 0.000006 9.109278 -0.517841 2.260108 88.405645 -166.067129 165.685445 3.699934 0.000149 -0.000067 88.202215 -161.252283 160.656622 2.849965 0.000181 0.000597 89.632504 -164.373898 164.275366 2.774884 -0.000034 -0.000029 0.000005 0.000001 -0.000002 9.533387 0.000230 0.000280 88.463968 -169.372654 169.091442 3.699955 0.000162 0.000034 87.162810 -165.346244 164.612395 2.949977 0.000153 0.000176 266.461362 -12.453382 -13.242447 2.952878 -0.000014 0.000063 0.000004 -0.000004 0.000004 9.104501 -0.042835 -1.864829 89.875604 -169.154293 169.129581 3.149961 0.000226 0.000281 265.400223 -11.233986 -12.168631 2.949951 0.000195 0.000301 264.095002 -8.754708 -9.703928 2.644318 0.000032 0.000057 0.000002 -0.000002 -0.000000 8.077743 -0.486705 -3.806011 -86.287672 -11.827022 -11.429552 3.599947 0.000203 0.014978 270.036419 -6.278440 -6.646384 2.099973 0.000198 0.007972 267.809614 -3.369896 -3.895030 2.125502 -0.000016 0.007507 0.000001 0.000000 0.000001 -8.207786 -6.751667 -1.599560 -0.077001 -0.000003 0.000080 -0.000002 -44.370110 0.345938 0.153719 -0.000000 -0.000000 0.000000 -44.423679 -3.043532 -0.076700 0.000000 -0.000002 -0.000006 -8.728667 10.710559 -0.000009 -0.000000 -0.000000 -0.000001 -0.000679 9.278123 0.000000 -0.000000 -0.000000 8.207792 -6.751710 -1.599556 -0.074518 -0.000003 0.000081 -0.000002 -44.370014 0.346960 0.148822 0.000002 0.000000 -0.000001 -44.423664 -3.044403 -0.074314 0.000000 -0.000002 -0.000004 -8.728671 10.710558 0.000007 -0.000000 -0.000000 0.000000 -0.000680 9.278137 -0.000000 0.000000 -0.000001 
0.000006 104.270477 1.554256 0.000010 0.000003 -0.000113 -0.000005 10.181587 0.131522 0.000001 -0.000003 0.000084 -0.000000 9.893967 -1.470711 0.000001 0.000000 -0.000000 -0.000000 9.220802 -1.370642 0.000000 -0.000000 -0.000000 0.000001 16.740433 -2.049030 0.000000 -0.000000 -0.000000 0.000000 9.617859 1.685014 0.000000 0.000000 0.000000 0.000002 22.037384 7.501101 0.000000 -0.000000 0.000000 -4.569968 11.014880 -2.160881 0.000008 0.000001 -0.000038 -10.592760 -0.524847 -2.231724 79.447982 69.618930 -60.030983 -27.841520 0.000009 0.000561 49.910644 98.381293 -56.644449 -28.328823 0.000006 0.000024 -0.000321 -0.000044 0.000008 -2.464616 -1.574239 2.682202 66.110221 -145.690776 130.077784 -3.215041 -1.873043 1.924445 283.559429 -27.803026 332.895552 -2.654739 -1.528254 1.512800 289.568493 -20.067989 336.854985 -2.018827 -1.152016 1.108059 -0.000001 -0.000003 0.000002 -9.108343 -0.518030 2.260154 284.176195 14.790344 11.564848 -3.700066 -0.000142 0.001528 286.641128 17.724974 13.240087 -2.850053 -0.000147 -0.000233 289.340801 14.335097 10.186961 -2.772181 0.000002 -0.000019 0.000000 -0.000000 0.000001 -9.532545 -0.000218 0.000294 287.176724 11.837852 8.810555 -3.700051 -0.000157 0.004031 285.908467 14.471494 10.905227 -2.950044 -0.000154 -0.001756 288.166282 11.908294 8.636972 -2.946626 0.000012 -0.000143 -0.000003 0.000000 0.000001 -9.103647 -0.043248 -1.864852 289.193324 11.608048 8.244843 -3.379303 -0.000198 -0.000728 282.955859 10.932401 8.722026 -2.889742 -0.000158 0.000703 282.661969 8.420883 6.770791 -2.638822 0.000001 0.000942 -0.000002 0.000001 -0.000001 -8.076726 -0.486875 -3.806025 292.019165 13.202127 8.863170 -3.600021 -0.000241 -0.003458 285.929641 6.949561 5.040692 -2.100000 -0.000197 -0.005454 283.957438 3.623656 2.686625 -2.115767 -0.000056 -0.003691 0.000001 -0.000000 -0.000004 4.570446 11.014691 -2.160851 -0.000018 0.000010 -0.000021 10.592535 -0.524545 -2.232383 71.939644 -70.864777 54.621340 27.841770 -0.000018 -0.000128 222.705531 -82.179955 228.294114 28.328842 -0.000043 0.000016 0.000022 -0.000089 -0.000001 2.466195 -1.576118 2.681872 36.244061 142.851767 -105.475306 3.217824 -1.871986 1.916545 253.647544 40.748782 49.165235 2.656070 -1.528760 1.514610 90.679244 150.389045 -145.104582 2.020883 -1.154085 1.115138 0.000001 0.000006 0.000006 9.109269 -0.517865 2.260104 86.738034 -164.116660 163.205813 3.699945 0.000149 -0.000073 87.325096 -158.998171 158.009501 2.849954 0.000185 0.000595 88.395974 -162.964666 162.489094 2.774882 -0.000027 -0.000033 0.000003 0.000001 0.000002 9.533367 0.000196 0.000286 87.334146 -168.357073 167.812256 3.699946 0.000183 0.000010 85.798535 -164.588448 163.432152 2.949961 0.000181 0.000170 264.264718 -13.127783 -14.500309 2.952868 -0.000043 0.000073 -0.000001 0.000000 -0.000001 9.104486 -0.042857 -1.864816 86.994514 -168.273376 167.644985 3.149961 0.000232 0.000309 263.563012 -10.831727 -12.114769 2.949941 0.000204 0.000290 261.510704 -8.600962 -9.974973 2.644320 0.000031 0.000060 0.000004 0.000001 -0.000001 8.077741 -0.486704 -3.806007 -89.140676 -12.213626 -12.386860 3.599928 0.000204 0.014974 268.152407 -6.077401 -6.662099 2.099990 0.000184 0.007949 265.314737 -3.506604 -4.215681 2.125502 -0.000000 0.007531 -0.000002 -0.000000 0.000001 -8.207786 -6.751667 -1.599560 -0.077001 -0.000003 0.000080 -0.000002 -44.370110 0.345938 0.153719 -0.000000 -0.000000 0.000000 -44.423679 -3.043532 -0.076700 0.000000 -0.000002 -0.000006 -8.728667 10.710559 -0.000009 -0.000000 -0.000000 -0.000001 -0.000679 9.278123 0.000000 -0.000000 -0.000000 8.207792 -6.751710 -1.599556 -0.074518 -0.000003 0.000081 -0.000002 -44.370014 0.346960 0.148822 0.000002 0.000000 -0.000001 -44.423664 -3.044403 -0.074314 0.000000 -0.000002 -0.000004 -8.728671 10.710558 0.000007 -0.000000 -0.000000 0.000000 -0.000680 9.278137 -0.000000 0.000000 -0.000001 
